<?xml version="1.0" encoding="utf-8"?>
<!-- Generator: Adobe Illustrator 24.1.3, SVG Export Plug-In . SVG Version: 6.00 Build 0)  -->
<svg version="1.1" id="Layer_1" xmlns:v="https://vecta.io/nano"
	 xmlns="http://www.w3.org/2000/svg" xmlns:xlink="http://www.w3.org/1999/xlink" x="0px" y="0px" viewBox="0 0 282 274"
	 style="enable-background:new 0 0 282 274;" xml:space="preserve">
<style type="text/css">
	.st0{fill:#090B15;}
	.st1{fill:#00CC99;}
	.st2{fill:#FFFFFF;}
</style>
<path class="st0" d="M165.9,136.9L119,88l56.8-71.5h80.6L165.9,136.9z M125.3,87.8l40.1,41.8l81.4-108.2h-68.7L125.3,87.8z
	 M257.9,49l-75.4,102l75.6,80.9L257.9,49z"/>
<path class="st1" d="M250.1,262.3l-65.4-72.4L82.2,82V19h-58v243.3h58V154.1l98.9,108.2H250.1z"/>
<path class="st0" d="M147.7,19H107l0.3,50.5L147.7,19z M146.9,262.3l-40.2-46.1l0.3,46.1H146.9z M255.5,264.7H180L84.6,160.2v104.5
	H21.8V16.6h62.8V81l101.8,107.2L255.5,264.7z M182.1,260h62.6L183,191.5L79.9,82.9V21.4H26.6V260h53.3V148L182.1,260L182.1,260z"/>
<polygon class="st2" points="126,87.8 166,129.6 247.4,21.4 178.8,21.4 "/>
</svg>
