<?xml version="1.0" encoding="utf-8"?>
<!-- Generator: Adobe Illustrator 24.1.3, SVG Export Plug-In . SVG Version: 6.00 Build 0)  -->
<svg version="1.1" id="Calque_1" xmlns="http://www.w3.org/2000/svg" xmlns:xlink="http://www.w3.org/1999/xlink" x="0px" y="0px"
	 viewBox="0 0 520 520" style="enable-background:new 0 0 520 520;" xml:space="preserve">
<style type="text/css">
	.st0{fill:#FFFFFF;}
	.st1{fill:#071827;}
	.st2{fill:#3CBDB2;}
</style>
<circle class="st0" cx="260" cy="260" r="260"/>
<g>
	<path class="st1" d="M304.9,82.5l-83.6,105.2l73.3,76.3L431.1,82.5H304.9z M292.9,235.8l-47.3-49.2l68.2-85.7h80.6L292.9,235.8z"/>
	<polygon class="st1" points="309.4,274.9 427.6,401.4 427.2,115.5 	"/>
</g>
<polygon class="st2" points="312.4,434.5 184.1,293.9 184.1,434.5 92,434.5 92,85.8 184.1,85.8 184.1,176.5 324.4,324.3 
	423.8,434.5 "/>
<polygon class="st1" points="206.6,82.3 207.1,178.9 280.6,82.3 "/>
<polygon class="st1" points="206.1,348.4 206.6,437.7 280.3,437.7 "/>
<path class="st1" d="M326.7,322L187.3,175.2V82.5H88.7v355.2h98.7V302.4L311,437.7h120.3L326.7,322z M169,255.1v164.3h-62V100.8h62
	v81.7l144.3,151.9l76.7,85H319L169,255.1z"/>
</svg>
