<?xml version="1.0" encoding="utf-8"?>
<!-- Generator: Adobe Illustrator 24.1.3, SVG Export Plug-In . SVG Version: 6.00 Build 0)  -->
<svg version="1.1" id="Layer_1" xmlns:v="https://vecta.io/nano"
	 xmlns="http://www.w3.org/2000/svg" xmlns:xlink="http://www.w3.org/1999/xlink" x="0px" y="0px" viewBox="0 0 1277.4 357"
	 style="enable-background:new 0 0 1277.4 357;" xml:space="preserve">
<style type="text/css">
	.st0{fill:#090B15;}
	.st1{fill:#00CC99;}
</style>
<path class="st0" d="M206.6,172.2l-65.2-67.9l78.9-99.3h112L206.6,172.2z M150.2,103.9l55.7,58.1L319,11.7h-95.4L150.2,103.9z
	 M334.4,50L229.7,191.7l105,112.4L334.4,50z"/>
<path class="st1" d="M323.6,346.4l-90.9-100.6L90.3,95.9V8.4H9.7v338h80.6V196l137.4,150.3H323.6z"/>
<path class="st0" d="M181.3,8.4h-56.5l0.4,70.2L181.3,8.4z M180.2,346.4l-55.8-64l0.4,64H180.2z M724.6,78.5l-18.1,45h-71.8v45h67.5
	l-18.1,45h-49.4v45h89.9l-18.1,45h-71.8h-45v-90.1v-45V78.5L724.6,78.5L724.6,78.5z M1088.1,78.5l-18,45h-71.8v45h67.3l-18.1,45
	h-49.4v45h89.9l-18.1,45h-71.8h-45v-90.1v-45V78.5L1088.1,78.5L1088.1,78.5z M1267,78.5l-18.1,45h-71.8v45h67.5l-18.1,45h-49.4v45
	v45h-45v-90.1v-45V78.5L1267,78.5L1267,78.5z M822.2,207.7c-6.7-2.4-13.9-5.9-21.5-11.1c-7.5-5-14.4-11.7-20.5-19.9
	c-6.1-8.2-9.1-18.4-9.1-30.8c0-18.6,6.6-34.5,19.9-47.6c13.1-13.1,29.2-19.9,47.8-19.9s34.5,6.6,47.6,19.9
	c13.1,13.1,19.9,29.2,19.9,47.6h-45c0-6.1-2.2-11.4-6.6-15.9c-4.5-4.5-9.8-6.6-15.9-6.6c-6.3,0-11.5,2.2-15.9,6.6
	c-4.3,4.5-6.6,9.8-6.6,15.9c0,8,3.2,14.1,9.8,18.3c6.4,4.2,11.4,6.7,14.7,7.5c1.6,0.6,5.9,1.9,13,3.8c7.1,2.1,14.4,5.5,22.3,10.3
	c7.7,4.8,14.7,11.2,21,19.2c6.3,8,9.3,18.4,9.3,30.9c0,18.6-6.6,34.6-19.9,47.8c-13.3,13.1-29.2,19.9-47.6,19.9
	c-18.6,0-34.6-6.6-47.8-19.9c-13.3-13.1-19.9-29.2-19.9-47.8h45c0,6.3,2.2,11.5,6.6,15.9c4.3,4.3,9.6,6.6,15.9,6.6
	c6.1,0,11.4-2.2,15.9-6.6c4.5-4.3,6.6-9.6,6.6-15.9c0-9.5-3.8-15.7-11.4-18.4l-15.4-5.8C833.1,211.4,828.9,210.1,822.2,207.7
	L822.2,207.7z M461.3,164.8l50.2-86.2h-55.6l-27.4,41L461.3,164.8z M474.3,235v0.2L410,147l-0.2,0.3V78.5h-45.2v225.2h45.2v-81.6
	l57.5,81.6h54.8L474.3,235z M331.1,349.7H226.2L93.6,204.5v145.2H6.4V5h87.2v89.5l141.4,148.9L331.1,349.7z M229.1,343.2h87
	L230.3,248L87.1,97.1V11.7h-74v331.5h74V187.6L229.1,343.2L229.1,343.2z"/>
</svg>
